<svg width="20" height="20" viewBox="0 0 20 20" fill="none" xmlns="http://www.w3.org/2000/svg">
<path d="M13.5 5.99999C12.6484 5.99707 11.8046 6.1621 11.0168 6.48563C10.229 6.80917 9.51281 7.28486 8.90908 7.88549C8.30535 8.48612 7.82598 9.1999 7.4984 9.98599C7.17082 10.7721 7.00146 11.615 7 12.4667V19C7 19.2652 7.10536 19.5196 7.29289 19.7071C7.48043 19.8946 7.73478 20 8 20H10.3333C10.5986 20 10.8529 19.8946 11.0404 19.7071C11.228 19.5196 11.3333 19.2652 11.3333 19V12.4667C11.3331 12.1638 11.3967 11.8642 11.52 11.5876C11.6433 11.3109 11.8236 11.0634 12.049 10.861C12.2744 10.6587 12.5399 10.5061 12.8282 10.4133C13.1165 10.3205 13.4211 10.2894 13.7222 10.3222C14.2622 10.3902 14.7585 10.6541 15.1169 11.0637C15.4753 11.4733 15.6709 12.0002 15.6667 12.5444V19C15.6667 19.2652 15.772 19.5196 15.9596 19.7071C16.1471 19.8946 16.4015 20 16.6667 20H19C19.2652 20 19.5196 19.8946 19.7071 19.7071C19.8946 19.5196 20 19.2652 20 19V12.4667C19.9985 11.615 19.8292 10.7721 19.5016 9.98599C19.174 9.1999 18.6946 8.48612 18.0909 7.88549C17.4872 7.28486 16.771 6.80917 15.9832 6.48563C15.1954 6.1621 14.3516 5.99707 13.5 5.99999Z" fill="white"/>
<path d="M4 7H1C0.447715 7 0 7.44771 0 8V19C0 19.5523 0.447715 20 1 20H4C4.55228 20 5 19.5523 5 19V8C5 7.44771 4.55228 7 4 7Z" fill="white"/>
<path d="M2.5 5C3.88071 5 5 3.88071 5 2.5C5 1.11929 3.88071 0 2.5 0C1.11929 0 0 1.11929 0 2.5C0 3.88071 1.11929 5 2.5 5Z" fill="white"/>
</svg>
